HIERARCHY
ROOT Hips
{
    OFFSET 0.000000 0.000000 0.000000
    CHANNELS 6 Xposition Yposition Zposition Zrotation Xrotation Yrotation
        JOINT Spine1
        {
            OFFSET -0.000000 23.269398 0.000000
            CHANNELS 3 Zrotation Xrotation Yrotation
            JOINT Neck
            {
                OFFSET -0.000000 18.032967 0.000000
                CHANNELS 3 Zrotation Xrotation Yrotation
                JOINT Head
                {
                    OFFSET -0.000000 13.091072 1.689171
                    CHANNELS 3 Zrotation Xrotation Yrotation
                    End Site
                    {
                        OFFSET -0.000000 16.891708 0.000000
                    }
                }
            }
            JOINT LeftShoulder
            {
                OFFSET 3.336773 14.146137 -0.012206
                CHANNELS 3 Zrotation Xrotation Yrotation
                JOINT LeftArm
                {
                    OFFSET 11.765518 0.000000 0.000000
                    CHANNELS 3 Zrotation Xrotation Yrotation
                    JOINT LeftForeArm
                    {
                        OFFSET 25.163450 0.000000 0.000000
                        CHANNELS 3 Zrotation Xrotation Yrotation
                        JOINT LeftHand
                        {
                            OFFSET 21.783554 0.000000 0.000000
                            CHANNELS 3 Zrotation Xrotation Yrotation
                            End Site
                            {
                                OFFSET 12.668781 0.000000 0.000000
                            }
                        }
                    }
                }
            }
            JOINT RightShoulder
            {
                OFFSET -3.409204 14.146137 -0.012206
                CHANNELS 3 Zrotation Xrotation Yrotation
                JOINT RightArm
                {
                    OFFSET -11.765518 0.000000 0.000000
                    CHANNELS 3 Zrotation Xrotation Yrotation
                    JOINT RightForeArm
                    {
                        OFFSET -25.163450 0.000000 0.000000
                        CHANNELS 3 Zrotation Xrotation Yrotation
                        JOINT RightHand
                        {
                            OFFSET -21.783554 0.000000 0.000000
                            CHANNELS 3 Zrotation Xrotation Yrotation
                            End Site
                            {
                                OFFSET -12.668781 0.000000 0.000000
                            }
                        }
                    }
                }
            }
        }
        JOINT LeftUpLeg
    {
        OFFSET 8.445854 0.000000 0.000000
        CHANNELS 3 Zrotation Xrotation Yrotation
        JOINT LeftLeg
        {
            OFFSET -0.000000 -40.674755 0.000000
            CHANNELS 3 Zrotation Xrotation Yrotation
            JOINT LeftFoot
            {
                OFFSET -0.000000 -37.111794 0.000000
                CHANNELS 3 Zrotation Xrotation Yrotation
                JOINT LeftToeBase
                {
                    OFFSET -0.000000 -5.489805 12.668781
                    CHANNELS 3 Zrotation Xrotation Yrotation
                    End Site
                    {
                        OFFSET -0.000000 0.000000 3.378341
                    }
                }
            }
        }
    }
    JOINT RightUpLeg
    {
        OFFSET -8.445854 0.000000 0.000000
        CHANNELS 3 Zrotation Xrotation Yrotation
        JOINT RightLeg
        {
            OFFSET -0.000000 -40.674755 0.000000
            CHANNELS 3 Zrotation Xrotation Yrotation
            JOINT RightFoot
            {
                OFFSET -0.000000 -37.111794 0.000000
                CHANNELS 3 Zrotation Xrotation Yrotation
                JOINT RightToeBase
                {
                    OFFSET -0.000000 -5.489805 12.668781
                    CHANNELS 3 Zrotation Xrotation Yrotation
                    End Site
                    {
                        OFFSET -0.000000 0.000000 3.378341
                    }
                }
            }
        }
    }
}
MOTION
Frames:    6
Frame Time:    0.008333
7.455978    83.213829    -0.744673    -1.506020    3.146998    -169.226257    -0.509069    10.127237    10.894140    -0.372406    5.789044    -3.207695    10.284824    5.466693    -5.191891    -1.650205    10.330253    11.934984    -64.700325    16.954794    -15.135649    1.391170    -0.601039    -1.721928    -0.977863    -0.505078    -8.783692    -1.918755    8.488308    -4.280906    46.589905    37.709316    36.081066    -2.291504    -3.852431    19.783375    -19.710564    -4.933537    8.527735    0.943389    -14.974600    -9.082393    -1.299437    23.150881    -3.029180    -3.257679    -9.560079    18.404310    -3.272274    -2.724522    3.650403    -1.587451    3.420897    -26.306921    -30.733601    29.303539    56.095745    1.433267    -7.721375    11.689260    6.902775    -15.460051    17.291489    
7.040951    83.220543    -1.336280    -1.790695    3.299524    -169.350189    -0.789980    10.042144    10.503752    -0.451634    5.935836    -3.030884    10.267409    5.839256    -5.054101    -1.579284    10.376047    11.890575    -64.553665    17.143559    -15.186072    1.330238    -0.478375    -1.755915    -1.159641    -0.370915    -8.587741    -1.932472    8.509941    -4.233625    47.421650    37.763107    35.432133    -2.363348    -3.560581    18.518814    -19.481773    -4.618959    8.411979    0.505426    -14.285439    -8.945154    -1.310338    23.127071    -3.182685    -2.399360    -9.080720    18.346935    -3.776883    -3.337001    3.831091    -2.351407    2.954682    -23.930580    -29.921562    32.032902    55.808247    0.969908    -5.548667    10.410692    7.113196    -15.749113    17.569054    
6.623533    83.226219    -1.917388    -2.068521    3.470176    -169.478073    -1.075745    9.997601    10.107258    -0.503250    6.126284    -2.863494    10.170933    6.093341    -4.896391    -1.491590    10.370794    11.825085    -64.328667    17.411196    -15.294854    1.143262    -0.257630    -1.681002    -0.922918    -0.173458    -8.377501    -1.915593    8.530870    -4.220918    48.127289    37.883999    34.813465    -2.276516    -3.434463    17.294300    -19.401087    -4.493443    8.222568    0.039277    -13.592739    -8.610337    -1.167529    23.137444    -3.421865    -1.785809    -9.180305    18.347403    -3.460716    -3.031500    3.531373    -2.920197    2.481431    -21.419926    -29.239552    34.577019    53.631149    1.400567    -3.332486    10.915276    6.807353    -15.440536    17.754175    
6.210444    83.221214    -2.498176    -2.354609    3.640513    -169.621262    -1.441441    10.091747    9.716871    -0.515463    6.189373    -2.709720    10.093866    6.329723    -4.746518    -1.260939    10.342293    11.707211    -64.089348    17.661798    -15.481604    1.055401    -0.137001    -1.722854    -1.013255    -0.048595    -8.221370    -1.867016    8.493204    -4.304482    48.796646    38.105450    34.340981    -2.244970    -3.190293    16.167139    -19.295076    -4.266869    8.209740    -0.386098    -12.846100    -8.355662    -1.119254    23.023792    -3.577135    -1.451772    -9.818254    18.671555    -2.169260    -1.677389    2.617220    -3.509611    1.965627    -19.323378    -28.688293    36.943466    52.271507    2.283970    -1.243582    11.008950    6.146246    -14.684301    17.693619    
5.799860    83.206268    -3.064206    -2.654764    3.825765    -169.784744    -1.728353    9.914464    9.212234    -0.753180    6.526441    -2.458983    10.066645    6.557235    -4.549063    -1.315700    10.443188    11.802951    -63.742741    18.081598    -15.632307    0.932516    0.020082    -1.564418    -0.637205    0.081234    -8.632635    -1.875419    8.891835    -4.452116    48.732220    38.576061    34.341221    -1.985984    -3.519772    15.137065    -19.617514    -4.497526    7.187510    -0.846014    -12.061903    -8.126556    -1.038391    22.868900    -3.700555    -0.746419    -9.450576    18.775011    -2.118784    -1.663718    2.494941    -4.138603    1.468677    -17.556261    -28.214144    39.050083    51.523594    3.799471    0.885490    10.856467    4.907703    -13.148992    17.141882    
5.396454    83.189407    -3.625099    -2.920288    3.975013    -169.988419    -2.021520    10.046334    8.895339    -0.695959    6.563090    -2.345757    9.755225    6.635985    -4.370041    -1.131185    10.293900    11.710766    -63.444881    18.452911    -15.988118    1.003036    0.506202    -1.708860    -1.042510    0.586031    -7.109368    -1.845389    8.685581    -4.428658    50.027683    37.716312    33.383625    -1.498286    -2.867259    13.665701    -19.391014    -3.943326    7.351179    -1.210271    -11.354036    -7.878125    -1.058459    22.783539    -3.790524    -0.541804    -9.702818    18.676737    -1.905920    -1.386483    2.473286    -4.714759    0.910416    -17.370916    -28.924240    40.419456    52.556248    5.240482    2.457458    10.878569    3.330832    -10.950833    15.804831    
